[img]http://img823.imageshack.us/img823/2036/blitze.jpg[/img]
[code]
Blitz.2011.BDRip.XVID.AC3.HQ.Hive-CM8

Thx Hive

CM8 Doing It Right The First Time 

Source: Bluray

Video: 720x304 @bitrate 2000 2pass
Audio: English TrueHD to AC3 5.1 @448
Sample: yes included
Subs: yes english in srt /subs
 
http://www.imdb.com/title/tt1297919/

General
Complete name                    : Blitz.2011.BDRip.XVID.AC3.HQ.Hive-CM8.avi
Format                           : AVI
Format/Info                      : Audio Video Interleave
File size                        : 1.68 GiB
Duration                         : 1h 37mn
Overall bit rate                 : 2 480 Kbps
Writing application              : Nandub v1.0rc2
Writing library                  : Nandub build 1853/release

Video
ID                               : 0
Format                           : MPEG-4 Visual
Format profile                   : Advanced Simple@L5
Format settings, BVOP            : 1
Format settings, QPel            : Yes
Format settings, GMC             : No warppoints
Format settings, Matrix          : Default (H.263)
Muxing mode                      : Packed bitstream
Codec ID                         : XVID
Codec ID/Hint                    : XviD
Duration                         : 1h 37mn
Bit rate                         : 2 023 Kbps
Width                            : 720 pixels
Height                           : 304 pixels
Display aspect ratio             : 2.35:1
Frame rate                       : 24.000 fps
Color space                      : YUV
Chroma subsampling               : 4:2:0
Bit depth                        : 8 bits
Scan type                        : Progressive
Compression mode                 : Lossy
Bits/(Pixel*Frame)               : 0.385
Stream size                      : 1.37 GiB (82%)
Writing library                  : XviD 1.2.1 (UTC 2008-12-04)

Audio
ID                               : 1
Format                           : AC-3
Format/Info                      : Audio Coding 3
Mode extension                   : CM (complete main)
Codec ID                         : 2000
Duration                         : 1h 37mn
Bit rate mode                    : Constant
Bit rate                         : 448 Kbps
Channel(s)                       : 6 channels
Channel positions                : Front: L C R, Side: L R, LFE
Sampling rate                    : 48.0 KHz
Bit depth                        : 16 bits
Compression mode                 : Lossy
Stream size                      : 311 MiB (18%)
Alignment                        : Split accross interleaves
Interleave, duration             : 42 ms (1.00 video frame)
Interleave, preload duration     : 500 ms

cast:
Jason Statham	... Detective Sergeant Tom Brant
Paddy Considine	... Porter Nash
Aidan Gillen	... Barry Weiss / The Blitz
Zawe Ashton	... WPC Elizabeth Falls
David Morrissey	... Harold Dunphy
Richard Riddell	... PC McDonald

plot:
A tough cop is dispatched to take down a serial killer who has been targeting police officers. 
[/code]
Screens:
[img]http://img233.imageshack.us/img233/5972/56518478.png[/img]
[img]http://img26.imageshack.us/img26/6677/31007274.png[/img]
[img]http://img705.imageshack.us/img705/3958/57287623.png[/img]
[img]http://img508.imageshack.us/img508/3016/78670585.png[/img]
[img]http://img42.imageshack.us/img42/9691/86938804.png[/img]
[img]http://img688.imageshack.us/img688/9453/55021472.png[/img]